<svg xmlns="http://www.w3.org/2000/svg" version="1.1" x="0" y="0" viewBox="23.736314205382456 5.050300669503276 45.71437158923507 79.94969933049673" enable-background="new 0 0 90 90" height="88.18819488145618" width="96.16818702407248" class="icon-icon-0" data-fill-palette-color="white" id="icon-0"><g fill="#fff" data-fill-palette-color="accent"><path d="M47.582 85c-1.076 0-1.965-0.855-1.998-1.939-0.063-2.095-0.236-9.071 0.213-10.867 0.587-2.347 2.732-3.232 4.299-3.879 0.28-0.116 0.562-0.231 0.832-0.354 4.154-1.897 11.455-6.226 13.664-13.889 2.828-9.811-2.022-19.377-4.239-23.034-2.11-3.482-5.158-7.688-8.106-11.756-2.453-3.386-4.781-6.598-6.652-9.479-1.844 2.838-3.867 5.576-5.829 8.233-2.38 3.222-4.841 6.554-6.93 10.001-2.217 3.657-7.067 13.225-4.239 23.034 2.519 8.739 8.837 11.479 10.713 12.109 2.181 0.734 3.633 0.595 4.161 0.409 0.052-2.792-0.099-21.824-0.22-34.445C43.239 28.039 44.126 27 45.23 27c0.007 0 0.014 0 0.02 0 1.096 0 1.989 1.008 2 2.105 0.098 10.209 0.313 34.133 0.181 35.203-0.232 1.891-1.866 3.17-4.37 3.369-5.618 0.44-15.008-4.063-18.309-15.515-3.266-11.329 2.173-22.099 4.663-26.208 2.183-3.602 4.699-7.005 7.132-10.299 2.073-2.807 4.216-5.706 6.096-8.66 0.27-0.496 1.141-1.836 2.735-1.938C46.203 5 47.419 5.281 48.484 6.902c1.896 2.985 4.375 6.408 7.001 10.031 2.995 4.133 6.093 8.408 8.287 12.029 2.49 4.109 7.929 14.887 4.663 26.216-2.651 9.2-11.066 14.236-15.847 16.42-0.315 0.144-0.641 0.278-0.967 0.413-0.823 0.34-1.847 0.763-1.944 1.152-0.216 0.885-0.218 5.764-0.096 9.775C49.615 84.043 48.748 85 47.644 85 47.623 85 47.603 85 47.582 85z" fill="#fff" data-fill-palette-color="white"></path></g></svg>